<?xml version="1.0" encoding="UTF-8"?>
<svg id="Layer_1" data-name="Layer 1" xmlns="http://www.w3.org/2000/svg" viewBox="0 0 780.29 117.93">
  <defs>
    <style>
      .cls-1 {
        fill: #f7f6f0;
      }
    </style>
  </defs>
  <g>
    <path class="cls-1" d="M275.37,61.35h-68.4v31.69h-11.29v-56.58c0-10.04,8.05-18.09,18.09-18.09h54.8c9.94,0,17.99,8.05,17.99,18.09v56.58h-11.19v-31.69ZM275.37,36.45c0-3.76-3.03-6.9-6.8-6.9h-54.8c-3.76,0-6.8,3.14-6.8,6.9v13.6h68.4v-13.6Z"/>
    <path class="cls-1" d="M299.74,77.45v-39.22h11.29v39.22c0,2.41,1.88,4.29,4.29,4.29h54.8c2.41,0,4.29-1.88,4.29-4.29v-39.22h11.29v39.22c0,8.58-7.01,15.58-15.58,15.58h-54.8c-8.58,0-15.58-7.01-15.58-15.58Z"/>
    <path class="cls-1" d="M398.88,77.45v-23.64c0-8.58,7.01-15.58,15.58-15.58h54.17v11.29h-54.17c-2.41,0-4.29,1.88-4.29,4.29v23.64c0,2.41,1.88,4.29,4.29,4.29h59.09V13.34h11.29v79.69h-70.38c-8.58,0-15.58-7.01-15.58-15.58Z"/>
    <path class="cls-1" d="M498.03,20.14h11.29v11.29h-11.29v-11.29ZM498.03,38.23h11.29v54.8h-11.29v-54.8Z"/>
    <path class="cls-1" d="M522.5,77.45V25.79h11.29v12.45h27.3v11.29h-27.3v27.92c0,2.41,1.88,4.29,4.29,4.29h28.03v11.29h-28.03c-8.58,0-15.58-7.01-15.58-15.58Z"/>
    <path class="cls-1" d="M577.72,74.94V18.36h11.29v56.58c0,3.76,3.03,6.8,6.8,6.8h54.8c3.77,0,6.8-3.03,6.8-6.8V18.36h11.19v56.58c0,10.04-8.05,18.09-17.99,18.09h-54.8c-10.04,0-18.09-8.05-18.09-18.09Z"/>
    <path class="cls-1" d="M681.78,38.23h70.38c8.58,0,15.58,7.01,15.58,15.58v23.64c0,8.58-7.01,15.58-15.58,15.58h-54.17v-11.29h54.17c2.41,0,4.29-1.88,4.29-4.29v-23.64c0-2.41-1.88-4.29-4.29-4.29h-59.09v68.4h-11.29V38.23Z"/>
  </g>
  <path class="cls-1" d="M76.38,55.14c-16.86,16.88-33.74,33.78-50.62,50.64H0l.83-1.67,60.73-60.76,14.82,11.78Z"/>
  <rect class="cls-1" x="124.03" y="15.32" width=".03" height="4.62"/>
  <path class="cls-1" d="M61.56,43.36l14.82,11.78c-16.86,16.88-33.74,33.78-50.62,50.64H0l.83-1.67,60.73-60.76Z"/>
  <path class="cls-1" d="M144,0v105.78h-31l-39.31-31.31,29.9,2.37,11.05,8.93,9.42,7.25V15.32h-.03l-8.8,1.22-31.18,4.32L103.26,1.64c.08-.08.18-.16.3-.25.08-.07.19-.14.29-.22.09-.08.2-.14.31-.22.03-.03.07-.05.09-.07.09-.06.19-.12.28-.18.37-.24.73-.44,1.04-.56.05-.03.09-.05.14-.07.05,0,.08-.03.13-.04.04,0,.08-.02.11-.03.04,0,.07,0,.09,0h37.93Z"/>
  <polygon class="cls-1" points="124.06 15.32 124.06 18.3 124.03 18.32 124.03 15.33 124.06 15.32"/>
  <rect class="cls-1" x="124.03" y="15.32" width=".03" height="19.54"/>
  <rect class="cls-1" x="124.03" y="15.32" width=".03" height="19.54"/>
</svg>